HIERARCHY
ROOT Hips
{
	OFFSET -9.916843 91.979286 100.905800
	CHANNELS 6 Xposition Yposition Zposition Zrotation Yrotation Xrotation 
	JOINT LeftUpLeg
	{
		OFFSET 0.103459 1.857831 10.548505
		CHANNELS 3 Zrotation Yrotation Xrotation
		JOINT LeftLeg
		{
			OFFSET 43.500004 -0.000023 -0.000004
			CHANNELS 3 Zrotation Yrotation Xrotation
			JOINT LeftFoot
			{
				OFFSET 42.372204 0.000019 -0.000006
				CHANNELS 3 Zrotation Yrotation Xrotation
				JOINT LeftToe
				{
					OFFSET 17.300005 0.000001 -0.000002
					CHANNELS 3 Zrotation Yrotation Xrotation
					End Site
					{
						OFFSET 0.000000 0.000000 0.000000
					}
				}
			}
		}
	}
	JOINT RightUpLeg
	{
		OFFSET 0.103461 1.857828 -10.548505
		CHANNELS 3 Zrotation Yrotation Xrotation
		JOINT RightLeg
		{
			OFFSET 43.500046 -0.000019 0.000006
			CHANNELS 3 Zrotation Yrotation Xrotation
			JOINT RightFoot
			{
				OFFSET 42.372261 -0.000015 0.000011
				CHANNELS 3 Zrotation Yrotation Xrotation
				JOINT RightToe
				{
					OFFSET 17.299999 -0.000003 0.000002
					CHANNELS 3 Zrotation Yrotation Xrotation
					End Site
					{
						OFFSET 0.000000 0.000000 0.000000
					}
				}
			}
		}
	}
	JOINT Spine
	{
		OFFSET 6.901964 -2.603731 0.000000
		CHANNELS 3 Zrotation Yrotation Xrotation
		JOINT Spine1
		{
			OFFSET 12.588102 -0.000003 0.000000
			CHANNELS 3 Zrotation Yrotation Xrotation
			JOINT Spine2
			{
				OFFSET 12.343204 0.000002 0.000000
				CHANNELS 3 Zrotation Yrotation Xrotation
				JOINT Neck
				{
					OFFSET 25.832891 -0.000013 0.000001
					CHANNELS 3 Zrotation Yrotation Xrotation
					JOINT Head
					{
						OFFSET 11.766613 0.000015 -0.000000
						CHANNELS 3 Zrotation Yrotation Xrotation
						End Site
						{
							OFFSET 0.000000 0.000000 0.000000
						}
					}
				}
				JOINT LeftShoulder
				{
					OFFSET 19.745911 -1.480375 6.000106
					CHANNELS 3 Zrotation Yrotation Xrotation
					JOINT LeftArm
					{
						OFFSET 11.284125 -0.000012 -0.000024
						CHANNELS 3 Zrotation Yrotation Xrotation
						JOINT LeftForeArm
						{
							OFFSET 33.000050 0.000007 0.000027
							CHANNELS 3 Zrotation Yrotation Xrotation
							JOINT LeftHand
							{
								OFFSET 25.200005 0.000018 0.000002
								CHANNELS 3 Zrotation Yrotation Xrotation
								End Site
								{
									OFFSET 0.000000 0.000000 0.000000
								}
							}
						}
					}
				}
				JOINT RightShoulder
				{
					OFFSET 19.746092 -1.480375 -6.000074
					CHANNELS 3 Zrotation Yrotation Xrotation
					JOINT RightArm
					{
						OFFSET 11.284139 -0.000017 -0.000020
						CHANNELS 3 Zrotation Yrotation Xrotation
						JOINT RightForeArm
						{
							OFFSET 33.000099 0.000021 0.000012
							CHANNELS 3 Zrotation Yrotation Xrotation
							JOINT RightHand
							{
								OFFSET 25.199780 0.000137 0.000427
								CHANNELS 3 Zrotation Yrotation Xrotation
								End Site
								{
									OFFSET 0.000000 0.000000 0.000000
								}
							}
						}
					}
				}
			}
		}
	}
}
MOTION
Frames: 5
Frame Time: 0.033333
-9.916843 91.979286 100.905800 88.362062 4.902609 84.416453 -175.784030 -1.808296 172.754431 -16.809893 -2.358105 -2.657712 87.531873 1.821267 -0.490077 21.454551 0.003100 0.000001 -175.632427 -3.938192 176.259602 -17.439032 2.969266 12.445452 85.416993 -8.421370 1.781764 21.454560 -0.003104 -0.000018 6.610534 0.339499 -0.107904 3.207672 0.681756 -0.206529 2.889562 0.680632 -0.210635 -0.534230 -0.909937 -0.939175 -6.776245 3.097749 -2.021006 -84.813348 -80.737508 -97.801677 -2.591080 8.175327 -14.290269 -22.443500 -19.316373 1.377256 15.777771 15.454457 1.699581 54.396511 86.790387 -124.070632 4.488625 -15.808850 26.205880 -29.953549 21.656563 -1.683291 11.834660 -2.508746 -16.190226 
-9.910976 91.979568 100.883904 88.364083 4.904568 84.404350 -175.793483 -1.806187 172.753051 -16.809886 -2.367850 -2.658667 87.522304 1.821274 -0.484459 21.454550 0.003098 0.000000 -175.649448 -3.934794 176.244876 -17.447063 2.969262 12.449277 85.419384 -8.424296 1.781772 21.454562 -0.003112 -0.000019 6.613314 0.335081 -0.105301 3.213235 0.672851 -0.201444 2.895134 0.671760 -0.205483 -0.546754 -0.902465 -0.939187 -6.766396 3.094507 -2.014955 -84.832158 -80.728670 -97.783713 -2.601844 8.190511 -14.298749 -22.507630 -19.327101 1.378842 15.777768 15.420240 1.701135 54.506060 86.785818 -123.961868 4.488625 -15.819790 26.236370 -30.016427 21.649043 -1.683290 11.815623 -2.485551 -16.175008 
-9.887308 91.979042 100.811501 88.372915 4.914771 84.372466 -175.827934 -1.796701 172.707795 -16.809881 -2.387059 -2.639697 87.495809 1.811922 -0.466440 21.454557 0.003094 0.000001 -175.710400 -3.916799 176.199346 -17.490040 2.972683 12.463313 85.433495 -8.434332 1.781765 21.454557 -0.003092 -0.000017 6.623575 0.321552 -0.098235 3.233820 0.645628 -0.187586 2.915683 0.644602 -0.191498 -0.576353 -0.868489 -0.933606 -6.759827 3.082283 -1.996531 -84.908909 -80.685947 -97.710665 -2.658873 8.241762 -14.334233 -22.723017 -19.397286 1.386348 15.788988 15.373047 1.860290 54.988050 86.772806 -123.483113 4.487064 -15.851882 26.348467 -30.182637 21.629237 -1.683291 11.686252 -2.310439 -16.161836 
-9.855885 91.977097 100.739304 88.386678 4.928451 84.353642 -175.859708 -1.775686 172.652128 -16.809888 -2.395846 -2.615707 87.472682 1.799653 -0.444000 21.454550 0.003107 0.000001 -175.777200 -3.883498 176.165455 -17.551255 2.989211 12.475830 85.456486 -8.443359 1.781765 21.454558 -0.003090 -0.000015 6.634693 0.310204 -0.092704 3.256116 0.622785 -0.176781 2.937997 0.621856 -0.180546 -0.593954 -0.833881 -0.928782 -6.788997 3.069690 -1.979611 -84.991869 -80.676371 -97.628170 -2.683649 8.294499 -14.379657 -22.948111 -19.482111 1.394943 15.804921 15.333783 2.017099 55.434454 86.766202 -123.039137 4.473925 -15.884129 26.426781 -30.275865 21.600040 -1.683298 11.451510 -1.794108 -16.374680 
-9.814889 91.974007 100.668198 88.403562 4.944555 84.338452 -175.883969 -1.741385 172.586572 -16.809878 -2.395325 -2.590358 87.453093 1.787659 -0.413406 21.454555 0.003083 -0.000001 -175.849955 -3.833801 176.132479 -17.628703 3.020983 12.487267 85.487303 -8.451777 1.781759 21.454562 -0.003122 -0.000019 6.646118 0.301975 -0.086337 3.278990 0.606185 -0.164235 2.960873 0.605319 -0.167882 -0.606951 -0.816503 -0.918454 -6.819201 3.091424 -1.971230 -85.087423 -80.688692 -97.530914 -2.700911 8.351428 -14.442792 -23.169031 -19.576968 1.404164 15.808599 15.306799 2.106645 55.766958 86.767656 -122.708406 4.454690 -15.923159 26.406671 -30.317786 21.590865 -1.683278 11.141438 -0.834840 -16.722043 
